<svg id="图层_1" data-name="图层 1" xmlns="http://www.w3.org/2000/svg" xmlns:xlink="http://www.w3.org/1999/xlink" viewBox="0 0 213.76 214.33"><defs><style>.cls-1{fill:none;}.cls-2{clip-path:url(#clip-path);}.cls-3{fill:#d1562c;}.cls-4{fill:#358046;}.cls-5{fill:#69a942;}</style><clipPath id="clip-path" transform="translate(-630.36 -305.69)"><rect class="cls-1" width="1190.55" height="841.89"/></clipPath></defs><title>敬业学校logo</title><g class="cls-2"><path class="cls-3" d="M762.39,330.84a25.15,25.15,0,1,1-25.15-25.15,25.15,25.15,0,0,1,25.15,25.15" transform="translate(-630.36 -305.69)"/><path class="cls-4" d="M757.52,476a66.27,66.27,0,0,1-20.28,3.18c-.82,0-1.64,0-2.45-.06v.06a94.61,94.61,0,0,1-94.61-94.61,79,79,0,0,1,3.1-22.43,106.91,106.91,0,0,0,94,157.86,107.52,107.52,0,0,0,20.28-1.95Z" transform="translate(-630.36 -305.69)"/><path class="cls-4" d="M825.72,353.18,796,383a66,66,0,0,1-25,86.95v44.63a106.88,106.88,0,0,0,54.68-161.35" transform="translate(-630.36 -305.69)"/><path class="cls-5" d="M667.89,331.81a99,99,0,0,0-14.1,14.58,106.78,106.78,0,0,0-11.34,17.33L717,438.24V518.1a108.06,108.06,0,0,0,40.56,0V421.44h0Z" transform="translate(-630.36 -305.69)"/><path class="cls-5" d="M813.14,337.9A100.75,100.75,0,0,0,797,324.53l-58.64,58.64,28.67,28.67,58.68-58.67s-3.9-6.49-12.59-15.27" transform="translate(-630.36 -305.69)"/></g></svg>